<?xml version="1.0" encoding="UTF-8"?><svg id="Layer_1" xmlns="http://www.w3.org/2000/svg" viewBox="0 0 1000 138.16"><path d="M11.55,94.03v42.2H0V21.33h43.81c22.15,0,36.11,14.44,36.11,36.11s-14.12,36.59-36.11,36.59H11.55ZM11.55,31.76v51.83h30.01c16.69,0,26.32-10.59,26.32-26.32s-9.79-25.52-25.68-25.52H11.55Z"></path><path d="M85.34,97.4c0-24.23,15.09-40.92,37.23-40.92s35.3,14.92,35.3,36.91v5.45h-61.78c.8,18.94,10.75,29.85,27.44,29.85,12.68,0,20.86-5.45,23.75-15.73h10.59c-4.17,16.37-16.21,25.19-34.5,25.19-22.79,0-38.03-16.37-38.03-40.76ZM96.42,90.82h50.39c0-14.92-9.63-24.87-24.23-24.87s-24.23,9.63-26.16,24.87Z"></path><path d="M168.78,115.21c0-14.28,10.91-23.27,29.04-24.71l25.68-2.09v-2.57c0-15.24-9.15-20.06-20.54-20.06-13.48,0-21.5,6.1-21.5,16.53h-10.11c0-15.73,12.84-25.83,31.94-25.83,17.97,0,31.13,8.99,31.13,29.53v50.23h-9.31l-1.45-13.64c-4.81,9.79-15.4,15.57-28.56,15.57-16.53,0-26.32-9.31-26.32-22.95ZM223.5,100.93v-4.17l-22.95,1.76c-14.6,1.28-20.54,7.7-20.54,16.37,0,9.47,7.06,14.28,17.65,14.28,16.36,0,25.83-11.39,25.83-28.24Z"></path><path d="M285.96,56.48c17.97,0,31.13,10.43,34.18,26.48h-11.07c-2.89-10.75-12.2-16.69-22.95-16.69-15.72,0-26.8,12.03-26.8,31.13s10.27,30.81,26,30.81c11.55,0,20.86-6.42,23.91-16.37h11.23c-3.69,15.89-17.49,26.32-35.14,26.32-21.99,0-36.91-16.21-36.91-40.6s14.92-41.08,37.55-41.08Z"></path><path d="M334.23,136.07V19.25h11.07v52.79c4.97-9.31,14.44-15.56,27.44-15.56,20.38,0,29.53,12.68,29.53,32.25v47.5h-11.07v-45.09c0-18.13-8.51-24.55-20.54-24.55-16.69,0-25.36,12.36-25.36,27.28v42.21h-11.07Z"></path><path d="M489.73,95.79v40.44h-20.54V18.93h46.38c23.59,0,38.83,15.41,38.83,38.35s-15.4,38.51-38.83,38.51h-25.84ZM489.73,37.22v40.28h21.51c14.12,0,21.66-7.54,21.66-20.38s-7.7-19.9-21.34-19.9h-21.82Z"></path><path d="M562.8,29.2c0-6.58,5.29-11.71,12.03-11.71s11.71,5.13,11.71,11.71-5.29,11.88-11.71,11.88c-6.74,0-12.03-5.3-12.03-11.88ZM565.05,56.96h19.58v79.27h-19.58V56.96Z"></path><path d="M602.23,136.23V16.84h19.42v119.39h-19.42Z"></path><path d="M677.36,54.71c24.55,0,42.37,17.01,42.37,41.72s-17.81,41.72-42.37,41.72-42.37-17.01-42.37-41.72,17.82-41.72,42.37-41.72ZM677.36,120.66c13.48,0,22.79-9.79,22.79-24.23s-9.31-24.23-22.79-24.23-22.79,9.79-22.79,24.23,9.31,24.23,22.79,24.23Z"></path><path d="M776.35,135.11c-4.33,1.93-9.47,2.89-15.09,2.89-15.09,0-24.55-7.7-24.55-26.64v-38.03h-12.2v-16.37h12.2v-24.71h19.41v24.71h18.13v16.37h-18.13v34.66c0,9.47,4.18,12.68,10.11,12.68,2.25,0,4.97-.48,7.86-1.44l2.25,15.89Z"></path><path d="M857.55,98.66s58.93,11.99,93.89-9.92c41.71-26.13,20.74-80.76-32.11-65.72-57.94,16.48-76.46,140.54-113.35,110.45-15.6-12.72-3.17-39.95,31.39-35.01l-4.75,8.63s-9.04-.61-15.08,1.2c-9.65,2.89-13.61,12.12-7.34,18.23,27.26,23.39,41.51-91.57,102.94-119.58,42.47-19.36,97.74,2.63,85.01,55.35-15.71,65.11-127.77,53.03-144.97,44.8l4.37-8.43Z"></path></svg>